<?xml version="1.0" encoding="UTF-8" standalone="no"?>
<svg width="250px" height="250px" viewBox="0 0 250 250" version="1.1" xmlns="http://www.w3.org/2000/svg" xmlns:xlink="http://www.w3.org/1999/xlink">
    <!-- Generator: Sketch 3.8.3 (29802) - http://www.bohemiancoding.com/sketch -->
    <title>view-todo</title>
    <desc>Created with Sketch.</desc>
    <defs></defs>
    <g id="Page-1" stroke="none" stroke-width="1" fill="none" fill-rule="evenodd">
        <g id="Artboard-4" transform="translate(-89.000000, -106.000000)" fill="#1199FF">
            <g id="view-todo" transform="translate(89.000000, 106.000000)">
                <polygon id="Path" points="250 58.5918647 250 250 0 250 0 174.065419 47.7424915 219.942969 51.6896811 224.656603 52.2016165 224.227909 52.683079 224.690565 56.9429691 220.257508 56.9429691 220.257508 250 58.5918647"></polygon>
                <polygon id="Combined-Shape" points="231.599994 0 250 0 250 41.6357776 250 41.6357776 52.7983835 206.772091 0 156.036144 0 100.065419 47.7424915 145.942969 51.6896811 150.656603 52.2016165 150.227909 52.683079 150.690565 56.9429691 146.257508 56.9429691 146.257508 231.599994 1.0658141e-14"></polygon>
                <polygon id="Path" points="211.351463 0 0 0 0 82.0361439 52.7983835 132.772091 211.351463 2.30926389e-14"></polygon>
            </g>
        </g>
    </g>
</svg>
